<svg width="16" height="17" viewBox="0 0 16 17" fill="none" xmlns="http://www.w3.org/2000/svg">
<path fill-rule="evenodd" clip-rule="evenodd" d="M4.85999 13.4883C4.47891 13.2347 3.92386 12.6434 3.06446 11.9859C2.57768 11.6142 1.46354 10.9785 1.07011 10.5996C0.726318 10.2634 0.690087 10.0743 0.631345 9.72224C0.526566 9.09595 0.987816 8.43179 1.66156 8.28214C2.17028 8.16827 2.69477 8.35842 3.17154 8.54411C3.45913 8.65565 3.8559 8.92518 4.0904 9.07397C4.30601 9.20996 4.3691 9.27463 4.6063 9.44146C4.91996 9.6623 5.03542 9.78459 4.84723 9.49036C4.62635 9.04062 4.25415 8.27099 3.8628 7.61064C3.56545 7.11004 3.50845 7.03499 3.25762 6.65808C2.99147 6.2567 2.82822 5.96803 2.56103 5.53755C2.37354 5.23257 2.01011 4.6031 1.84744 4.23538C1.62411 3.73281 1.31978 2.89379 1.52681 2.39535C1.68908 2.00506 2.25917 1.71771 2.69223 1.78511C3.25923 1.87311 3.76601 2.49068 3.98432 2.73201C4.37672 3.16595 4.70824 3.70695 5.08136 4.43738C5.5561 5.36715 6.28576 6.63465 6.38833 6.91781C6.29706 6.55947 5.96933 5.84899 5.92074 5.49255C5.87665 5.16935 6.01809 4.73114 6.3083 4.53058C6.554 4.36132 6.863 4.22826 7.16241 4.19506C7.47986 4.15915 7.86295 4.27014 8.04516 4.43277C8.58236 4.91426 8.98324 6.12462 8.97648 6.05532C8.94201 5.67115 8.664 4.86459 8.7568 4.46112C8.81759 4.1953 9.09186 3.88426 9.26203 3.79318C9.52555 3.65282 9.86391 3.52599 10.1763 3.48751C10.4283 3.45712 10.8403 3.63442 10.9707 3.74132C11.2844 4.00106 11.7032 4.88805 11.8438 5.2009C11.9017 5.33035 11.793 4.80523 11.8949 4.41037C12.0834 3.67715 13.4117 3.11492 13.8974 4.43121C14.1234 5.04544 14.1094 5.01845 14.2454 5.43689C14.4053 5.92856 14.49 6.22803 14.5791 6.59236C14.6732 6.98234 14.871 7.86864 14.8875 8.32383C14.8988 8.63667 14.8371 9.36861 14.6954 9.8416C14.6954 9.8416 14.0605 11.3624 14.1233 11.934C14.1849 12.505 14.2232 12.4967 14.3247 12.8833C14.4259 13.2689 14.7248 13.7227 14.7248 13.7227C14.7248 13.7227 13.9943 14.0696 13.5621 14.1375C13.1708 14.1985 12.47 13.6083 12.2775 13.4206C12.0125 13.1618 11.683 13.3352 11.6218 13.6096C11.5263 14.0434 11.2784 14.8463 10.9664 14.993C10.3571 15.2794 9.02267 15.6575 7.98743 15.9826C7.98743 15.9826 7.85078 14.9639 7.35167 14.7613C6.98154 14.6093 6.31994 14.2723 5.93599 14.1069L4.85999 13.4883Z" fill="white"/>
<path fill-rule="evenodd" clip-rule="evenodd" d="M4.85999 13.4883C4.47891 13.2347 3.92386 12.6434 3.06446 11.9859C2.57768 11.6142 1.46354 10.9785 1.07011 10.5996C0.726318 10.2634 0.690087 10.0743 0.631345 9.72224C0.526566 9.09595 0.987816 8.43179 1.66156 8.28214C2.17028 8.16827 2.69477 8.35842 3.17154 8.54411C3.45913 8.65565 3.8559 8.92518 4.0904 9.07397C4.30601 9.20996 4.3691 9.27463 4.6063 9.44146C4.91996 9.6623 5.03542 9.78459 4.84723 9.49036C4.62635 9.04062 4.25415 8.27099 3.8628 7.61064C3.56545 7.11004 3.50845 7.03499 3.25762 6.65808C2.99147 6.2567 2.82822 5.96803 2.56103 5.53755C2.37354 5.23257 2.01011 4.6031 1.84744 4.23538C1.62411 3.73281 1.31978 2.89379 1.52681 2.39535C1.68908 2.00506 2.25917 1.71771 2.69223 1.78511C3.25923 1.87311 3.76601 2.49068 3.98432 2.73201C4.37672 3.16595 4.70824 3.70695 5.08136 4.43738C5.5561 5.36715 6.28576 6.63465 6.38833 6.91781C6.29706 6.55947 5.96933 5.84899 5.92074 5.49255C5.87665 5.16935 6.01809 4.73114 6.3083 4.53058C6.554 4.36132 6.863 4.22826 7.16241 4.19506C7.47986 4.15915 7.86295 4.27014 8.04516 4.43277C8.58236 4.91426 8.98324 6.12462 8.97648 6.05532C8.94201 5.67115 8.664 4.86459 8.7568 4.46112C8.81759 4.1953 9.09186 3.88426 9.26203 3.79318C9.52555 3.65282 9.86391 3.52599 10.1763 3.48751C10.4283 3.45712 10.8403 3.63442 10.9707 3.74132C11.2844 4.00106 11.7032 4.88805 11.8438 5.2009C11.9017 5.33035 11.793 4.80523 11.8949 4.41037C12.0834 3.67715 13.4117 3.11492 13.8974 4.43121C14.1234 5.04544 14.1094 5.01845 14.2454 5.43689C14.4053 5.92856 14.49 6.22803 14.5791 6.59236C14.6732 6.98234 14.871 7.86864 14.8875 8.32383C14.8988 8.63667 14.8371 9.36861 14.6954 9.8416C14.6954 9.8416 14.0605 11.3624 14.1233 11.934C14.1849 12.505 14.2232 12.4967 14.3247 12.8833C14.4259 13.2689 14.7248 13.7227 14.7248 13.7227C14.7248 13.7227 13.9943 14.0695 13.5621 14.1375C13.1708 14.1985 12.47 13.6083 12.2775 13.4206C12.0125 13.1618 11.683 13.3352 11.6218 13.6096C11.5263 14.0434 11.2784 14.8463 10.9664 14.993C10.3571 15.2794 9.02267 15.6575 7.98743 15.9826C7.98743 15.9826 7.85078 14.9639 7.35167 14.7613C6.98154 14.6093 6.31994 14.2723 5.93599 14.1069L4.85999 13.4883Z" stroke="#4C4C4F" stroke-width="0.75" stroke-linecap="round" stroke-linejoin="round"/>
<path d="M12.8009 11.2793L11.7314 7.98975" stroke="#4C4C4F" stroke-width="0.75" stroke-linecap="round"/>
<path d="M10.8877 11.9136L9.79869 8.61572" stroke="#4C4C4F" stroke-width="0.75" stroke-linecap="round"/>
<path d="M7.92547 9.25806L9.00473 12.5097" stroke="#4C4C4F" stroke-width="0.75" stroke-linecap="round"/>
</svg>
